<svg width="66" height="66" viewBox="0 0 66 66" fill="none" xmlns="http://www.w3.org/2000/svg">
<path d="M50.3667 0.814453H15.9862C7.60924 0.814453 0.818359 7.60533 0.818359 15.9823V50.3627C0.818359 58.7397 7.60924 65.5306 15.9862 65.5306H50.3667C58.7436 65.5306 65.5345 58.7397 65.5345 50.3627V15.9823C65.5345 7.60533 58.7436 0.814453 50.3667 0.814453Z" fill="#5865F2"/>
<mask id="mask0_83_571" style="mask-type:luminance" maskUnits="userSpaceOnUse" x="7" y="13" width="52" height="40">
<path d="M7.89697 13.7071H58.4565V52.873H7.89697V13.7071Z" fill="white"/>
</mask>
<g mask="url(#mask0_83_571)">
<path d="M50.6974 17.195C47.4196 15.6903 43.9603 14.6173 40.4063 14.0029C40.374 13.9969 40.3407 14.0013 40.311 14.0153C40.2813 14.0294 40.2568 14.0525 40.241 14.0812C39.7966 14.8715 39.3041 15.9029 38.9596 16.7134C35.0733 16.1314 31.2073 16.1314 27.4009 16.7134C27.0561 15.8847 26.5459 14.8715 26.0995 14.0812C26.083 14.0531 26.0583 14.0305 26.0288 14.0165C25.9993 14.0025 25.9662 13.9978 25.9339 14.0029C22.3796 14.616 18.9202 15.6891 15.6428 17.195C15.6147 17.2069 15.5911 17.2272 15.575 17.2531C9.0205 27.0455 7.22514 36.5972 8.10588 46.0306C8.10833 46.0537 8.11542 46.0761 8.12671 46.0964C8.138 46.1167 8.15327 46.1346 8.17161 46.1489C12.496 49.3248 16.6851 51.2528 20.7963 52.5307C20.8283 52.5403 20.8624 52.5398 20.8941 52.5294C20.9259 52.519 20.9536 52.4992 20.9738 52.4726C21.9463 51.1444 22.8131 49.7441 23.5566 48.2716C23.5668 48.2514 23.5727 48.2293 23.5738 48.2067C23.5748 48.1841 23.5711 48.1616 23.5628 48.1405C23.5545 48.1195 23.5419 48.1004 23.5257 48.0846C23.5095 48.0688 23.4901 48.0567 23.4689 48.0489C22.0937 47.5271 20.7844 46.8913 19.525 46.1691C19.5021 46.1556 19.4828 46.1366 19.4689 46.1139C19.455 46.0912 19.4469 46.0654 19.4454 46.0388C19.4438 46.0123 19.4488 45.9857 19.4599 45.9615C19.471 45.9373 19.4879 45.9162 19.5091 45.9001C19.7748 45.7015 20.0359 45.4968 20.2922 45.2863C20.3147 45.2678 20.3419 45.2558 20.3707 45.2519C20.3996 45.248 20.429 45.2522 20.4555 45.2641C28.7301 49.0419 37.688 49.0419 45.8647 45.2641C45.8914 45.2514 45.9211 45.2466 45.9504 45.2502C45.9797 45.2538 46.0074 45.2656 46.0303 45.2843C46.2869 45.496 46.5487 45.7014 46.8155 45.9001C46.8368 45.9161 46.8538 45.937 46.8651 45.9611C46.8764 45.9852 46.8815 46.0117 46.8802 46.0383C46.8788 46.0649 46.8709 46.0907 46.8572 46.1135C46.8435 46.1363 46.8244 46.1554 46.8016 46.1691C45.5414 46.9049 44.2214 47.533 42.8557 48.0469C42.8345 48.055 42.8152 48.0675 42.7992 48.0835C42.7831 48.0996 42.7706 48.1188 42.7625 48.1401C42.7544 48.1613 42.7509 48.184 42.7522 48.2066C42.7535 48.2293 42.7595 48.2514 42.77 48.2716C43.5263 49.7325 44.3888 51.1359 45.3505 52.4706C45.3701 52.4979 45.3978 52.5184 45.4296 52.5292C45.4614 52.54 45.4958 52.5405 45.528 52.5307C49.6592 51.2528 53.8483 49.3248 58.1729 46.1489C58.1914 46.1352 58.2069 46.1178 58.2182 46.0977C58.2295 46.0777 58.2365 46.0555 58.2386 46.0326C59.2928 35.1266 56.4729 25.6531 50.7632 17.2551C50.7492 17.2278 50.7259 17.2065 50.6974 17.195ZM24.7923 40.2867C22.301 40.2867 20.2482 37.9997 20.2482 35.1908C20.2482 32.382 22.2613 30.095 24.7923 30.095C27.343 30.095 29.3758 32.4022 29.3358 35.1908C29.3358 37.9997 27.3233 40.2867 24.7923 40.2867ZM41.5922 40.2867C39.1009 40.2867 37.0484 37.9997 37.0484 35.1908C37.0484 32.382 39.0612 30.095 41.5922 30.095C44.1429 30.095 46.1757 32.4022 46.136 35.1908C46.136 37.9997 44.1429 40.2867 41.5922 40.2867Z" fill="white"/>
</g>
</svg>
