<svg width="66" height="67" viewBox="0 0 66 67" fill="none" xmlns="http://www.w3.org/2000/svg">
<g clip-path="url(#clip0_83_578)">
<path d="M66 33.7773C66 15.5726 51.2419 0.814453 33.0371 0.814453C14.8323 0.814453 0.0742188 15.5723 0.0742188 33.7773C0.0742188 50.2299 12.1283 63.8671 27.8867 66.3398V43.3057H19.5172V33.7773H27.8867V26.5152C27.8867 18.2539 32.8079 13.6906 40.3371 13.6906C43.9437 13.6906 47.7159 14.3344 47.7159 14.3344V22.4464H43.5595C39.4644 22.4464 38.1876 24.9873 38.1876 27.5942V33.7773H47.3296L45.8682 43.3057H38.1876V66.3398C53.9459 63.8671 66 50.2302 66 33.7773Z" fill="#1877F2"/>
<path d="M45.8681 43.3057L47.3295 33.7773H38.1875V27.5942C38.1875 24.9871 39.4645 22.4464 43.5594 22.4464H47.7158V14.3344C47.7158 14.3344 43.9436 13.6906 40.337 13.6906C32.8078 13.6906 27.8866 18.2539 27.8866 26.5152V33.7773H19.5171V43.3057H27.8866V66.3398C29.5904 66.6068 31.3124 66.7407 33.037 66.7402C34.7616 66.7408 36.4837 66.6069 38.1875 66.3398V43.3057H45.8681Z" fill="white"/>
</g>
<defs>
<clipPath id="clip0_83_578">
<rect width="65.9258" height="65.9258" fill="white" transform="translate(0.0742188 0.814453)"/>
</clipPath>
</defs>
</svg>
