<svg width="63" height="48" viewBox="0 0 63 48" fill="none" xmlns="http://www.w3.org/2000/svg">
<g clip-path="url(#clip0_83_581)">
<path d="M14.2467 47.2233V23.0037L6.7355 16.132L0 12.3188V42.9492C0 45.3141 1.91607 47.2233 4.27412 47.2233H14.2467Z" fill="#4285F4"/>
<path d="M48.4385 47.2232H58.4111C60.7762 47.2232 62.6852 45.3069 62.6852 42.9491V12.319L55.0562 16.6866L48.4385 23.0037V47.2232Z" fill="#34A853"/>
<path d="M14.2467 23.0037L13.2246 13.5404L14.2467 4.48306L31.3427 17.3052L48.4386 4.48306L49.5819 13.0514L48.4386 23.0037L31.3427 35.8258L14.2467 23.0037Z" fill="#EA4335"/>
<path d="M48.4385 4.48309V23.0037L62.6852 12.3188V6.62003C62.6852 1.33462 56.6517 -1.67844 52.4278 1.49133L48.4385 4.48309Z" fill="#FBBC04"/>
<path d="M0 12.3188L6.55234 17.2332L14.2467 23.0037V4.48311L10.2574 1.49135C6.02613 -1.67867 0 1.33464 0 6.6198V12.3185V12.3188Z" fill="#C5221F"/>
</g>
<defs>
<clipPath id="clip0_83_581">
<rect width="62.6854" height="47.2589" fill="white" transform="translate(0 0.19696)"/>
</clipPath>
</defs>
</svg>
