<svg width="66" height="66" viewBox="0 0 66 66" fill="none" xmlns="http://www.w3.org/2000/svg">
<g clip-path="url(#clip0_83_587)">
<path d="M32.9616 0C24.2217 0 15.8319 3.47488 9.65673 9.65415C3.4752 15.8359 0.0017123 24.2195 0 32.9616C0 41.7001 3.47642 50.0898 9.65673 56.2691C15.8319 62.4484 24.2217 65.9233 32.9616 65.9233C41.7016 65.9233 50.0914 62.4484 56.2665 56.2691C62.4468 50.0898 65.9233 41.7001 65.9233 32.9616C65.9233 24.2232 62.4468 15.8334 56.2665 9.65415C50.0914 3.47488 41.7016 0 32.9616 0Z" fill="url(#paint0_linear_83_587)"/>
<path d="M14.9203 32.6135C24.5307 28.4274 30.9376 25.6674 34.1411 24.334C43.2982 20.5264 45.1987 19.8651 46.4399 19.8427C46.7128 19.8383 47.3206 19.9058 47.7171 20.2264C48.0467 20.4968 48.1394 20.8624 48.1858 21.1192C48.227 21.3757 48.2837 21.9602 48.2373 22.4165C47.7429 27.6286 45.5952 40.2766 44.5034 46.1144C44.045 48.5845 43.1334 49.4126 42.2527 49.4935C40.3368 49.6696 38.8844 48.2286 37.0303 47.0136C34.1308 45.1116 32.493 43.9281 29.6758 42.0725C26.4208 39.9279 28.5324 38.749 30.3865 36.8228C30.8706 36.3186 39.3068 28.6473 39.4664 27.9515C39.487 27.8645 39.5076 27.54 39.3119 27.369C39.1214 27.1975 38.8381 27.2562 38.6321 27.3026C38.3385 27.3685 33.7084 30.4319 24.7264 36.4922C23.4131 37.3955 22.2234 37.8359 21.1521 37.8127C19.9779 37.7875 17.7117 37.1473 16.0276 36.6003C13.9675 35.9293 12.3246 35.5744 12.4688 34.4347C12.5409 33.8413 13.3598 33.2341 14.9203 32.6135Z" fill="white"/>
</g>
<defs>
<linearGradient id="paint0_linear_83_587" x1="3296.16" y1="0" x2="3296.16" y2="6592.33" gradientUnits="userSpaceOnUse">
<stop stop-color="#2AABEE"/>
<stop offset="1" stop-color="#229ED9"/>
</linearGradient>
<clipPath id="clip0_83_587">
<rect width="65.9233" height="65.9233" fill="white"/>
</clipPath>
</defs>
</svg>
