<svg width="72" height="73" viewBox="0 0 72 73" fill="none" xmlns="http://www.w3.org/2000/svg">
<g clip-path="url(#clip0_83_590)">
<path d="M1.53498 35.8088C1.5333 41.899 3.1246 47.8456 6.15044 53.087L1.24561 70.9953L19.5726 66.19C24.6415 68.9495 30.321 70.3954 36.0924 70.3958H36.1076C55.1602 70.3958 70.6695 54.8921 70.6777 35.8361C70.6813 26.6021 67.0886 17.919 60.561 11.3864C54.0345 4.85429 45.3545 1.25504 36.1062 1.25082C17.0513 1.25082 1.54313 16.7537 1.53527 35.8088" fill="url(#paint0_linear_83_590)"/>
<path d="M0.300617 35.7976C0.29865 42.1069 1.94699 48.2661 5.0807 53.6952L0 72.2455L18.9841 67.2679C24.2148 70.1199 30.1041 71.6235 36.0968 71.6257H36.1122C55.8484 71.6257 71.9148 55.5644 71.9233 35.8262C71.9266 26.2604 68.2046 17.2652 61.4438 10.4986C54.6822 3.73271 45.6918 0.0039333 36.1122 0C16.3727 0 0.308483 16.0591 0.300617 35.7976ZM11.6061 52.7602L10.8972 51.635C7.91746 46.8971 6.3447 41.4219 6.34695 35.7998C6.35341 19.3937 19.7053 6.04605 36.1235 6.04605C44.0744 6.04942 51.5465 9.14886 57.1666 14.7724C62.7865 20.3964 65.8789 27.8725 65.8769 35.824C65.8696 52.2301 52.5175 65.5794 36.1122 65.5794H36.1004C30.7587 65.5766 25.5198 64.1421 20.951 61.4312L19.8637 60.7864L8.5982 63.74L11.6061 52.7599V52.7602Z" fill="url(#paint1_linear_83_590)"/>
<path d="M27.1616 20.832C26.4913 19.3421 25.7858 19.312 25.1483 19.2859C24.6263 19.2634 24.0296 19.2651 23.4334 19.2651C22.8367 19.2651 21.8671 19.4896 21.0476 20.3844C20.2272 21.2801 17.9155 23.4445 17.9155 27.8467C17.9155 32.2492 21.122 36.5037 21.569 37.1012C22.0166 37.6977 27.7592 47.0207 36.8541 50.6074C44.4128 53.588 45.951 52.9951 47.5915 52.8457C49.2322 52.6968 52.8857 50.6818 53.6311 48.5924C54.377 46.5032 54.377 44.7125 54.1533 44.3382C53.9297 43.9654 53.333 43.7415 52.4381 43.2942C51.543 42.8467 47.1439 40.6819 46.3238 40.3833C45.5034 40.0849 44.907 39.936 44.3102 40.832C43.7135 41.7265 42 43.7415 41.4777 44.3382C40.956 44.9364 40.4337 45.0108 39.5391 44.5633C38.6438 44.1143 35.7621 43.1706 32.3432 40.1226C29.6831 37.7508 27.8873 34.8219 27.3653 33.9259C26.8433 33.0314 27.3094 32.5465 27.7581 32.1006C28.1601 31.6997 28.6532 31.0557 29.101 30.5335C29.5471 30.0109 29.6961 29.6381 29.9944 29.0413C30.2931 28.444 30.1436 27.9215 29.9203 27.4739C29.6961 27.0264 27.9573 22.6011 27.1616 20.832Z" fill="white"/>
</g>
<defs>
<linearGradient id="paint0_linear_83_590" x1="3472.85" y1="6975.7" x2="3472.85" y2="1.25082" gradientUnits="userSpaceOnUse">
<stop stop-color="#1FAF38"/>
<stop offset="1" stop-color="#60D669"/>
</linearGradient>
<linearGradient id="paint1_linear_83_590" x1="3596.16" y1="7224.55" x2="3596.16" y2="0" gradientUnits="userSpaceOnUse">
<stop stop-color="#F9F9F9"/>
<stop offset="1" stop-color="white"/>
</linearGradient>
<clipPath id="clip0_83_590">
<rect width="71.9233" height="72.4852" fill="white"/>
</clipPath>
</defs>
</svg>
