<svg width="68" height="67" viewBox="0 0 68 67" fill="none" xmlns="http://www.w3.org/2000/svg">
<path d="M59.9308 20.2419C59.627 19.098 59.028 18.054 58.1938 17.2144C57.3596 16.3748 56.3194 15.7692 55.1775 15.4582C50.9852 14.3271 34.1742 14.3271 34.1742 14.3271C34.1742 14.3271 17.3632 14.3271 13.1708 15.4582C12.0289 15.7692 10.9887 16.3748 10.1545 17.2144C9.32029 18.054 8.72132 19.098 8.41757 20.2419C7.29395 24.461 7.29395 33.2653 7.29395 33.2653C7.29395 33.2653 7.29395 42.0695 8.41757 46.2895C8.72132 47.4335 9.32029 48.4775 10.1545 49.317C10.9887 50.1566 12.0289 50.7622 13.1708 51.0733C17.3632 52.2034 34.1742 52.2034 34.1742 52.2034C34.1742 52.2034 50.9852 52.2034 55.1775 51.0733C56.3194 50.7622 57.3596 50.1566 58.1938 49.317C59.028 48.4775 59.627 47.4335 59.9308 46.2895C61.0544 42.0695 61.0544 33.2653 61.0544 33.2653C61.0544 33.2653 61.0544 24.461 59.9308 20.2419Z" fill="#EA5A47"/>
<path d="M28.6763 41.2582L42.7272 33.2653L28.6763 25.2723V41.2582Z" fill="white"/>
<path d="M59.9308 20.2419C59.627 19.098 59.028 18.054 58.1938 17.2144C57.3596 16.3748 56.3194 15.7692 55.1775 15.4582C50.9852 14.3271 34.1742 14.3271 34.1742 14.3271C34.1742 14.3271 17.3632 14.3271 13.1708 15.4582C12.0289 15.7692 10.9887 16.3748 10.1545 17.2144C9.32029 18.054 8.72132 19.098 8.41757 20.2419C7.29395 24.461 7.29395 33.2653 7.29395 33.2653C7.29395 33.2653 7.29395 42.0695 8.41757 46.2895C8.72132 47.4335 9.32029 48.4775 10.1545 49.317C10.9887 50.1566 12.0289 50.7622 13.1708 51.0733C17.3632 52.2034 34.1742 52.2034 34.1742 52.2034C34.1742 52.2034 50.9852 52.2034 55.1775 51.0733C56.3194 50.7622 57.3596 50.1566 58.1938 49.317C59.028 48.4775 59.627 47.4335 59.9308 46.2895C61.0544 42.0695 61.0544 33.2653 61.0544 33.2653C61.0544 33.2653 61.0544 24.461 59.9308 20.2419Z" stroke="black" stroke-width="1.84807" stroke-miterlimit="10"/>
<path d="M28.6758 41.2582L42.7267 33.2653L28.6758 25.2724V41.2582Z" stroke="black" stroke-width="1.84807" stroke-miterlimit="10" stroke-linecap="round" stroke-linejoin="round"/>
</svg>
